<?xml version="1.0" standalone="no"?>
<!DOCTYPE svg PUBLIC "-//W3C//DTD SVG 20010904//EN"
 "http://www.w3.org/TR/2001/REC-SVG-20010904/DTD/svg10.dtd">
<svg version="1.0" xmlns="http://www.w3.org/2000/svg"
 width="512.000000pt" height="512.000000pt" viewBox="0 0 512.000000 512.000000"
 preserveAspectRatio="xMidYMid meet">

<g transform="translate(0.000000,512.000000) scale(0.100000,-0.100000)"
fill="#000000" stroke="none">
<path d="M643 5105 c-185 -40 -342 -181 -405 -363 l-23 -67 0 -1815 0 -1815
22 -70 c43 -137 140 -251 265 -313 133 -65 36 -62 1746 -62 899 0 1552 4 1552
9 0 5 -31 108 -69 230 -38 122 -67 221 -64 221 7 0 345 -292 498 -431 157
-141 726 -619 737 -619 12 0 10 4563 -2 4640 -33 212 -223 410 -437 455 -98
21 -3725 21 -3820 0z m1507 -1210 c10 -12 10 -16 -1 -19 -266 -80 -423 -147
-566 -242 -101 -67 -113 -83 -36 -48 394 179 876 248 1311 188 219 -30 491
-107 671 -190 41 -19 76 -32 78 -30 8 8 -163 115 -262 164 -96 48 -242 106
-333 133 -40 12 -41 13 -26 31 23 24 88 24 215 -2 164 -34 343 -109 486 -204
59 -39 65 -47 117 -152 186 -374 312 -846 332 -1249 l7 -131 -65 -62 c-92 -88
-159 -137 -258 -187 -107 -54 -228 -92 -350 -111 -168 -25 -157 -28 -249 84
-79 95 -94 122 -68 122 26 1 183 72 253 115 72 45 184 139 184 155 0 4 -61
-24 -136 -62 -153 -79 -249 -116 -391 -152 -363 -92 -719 -85 -1058 21 -97 30
-354 132 -424 168 -28 14 -51 22 -51 17 0 -10 83 -89 136 -130 54 -41 175
-105 251 -132 l62 -22 -87 -108 -87 -107 -60 4 c-175 13 -363 69 -499 150 -48
29 -114 82 -164 132 l-85 84 6 161 c12 333 98 704 247 1066 85 206 124 276
178 315 121 89 351 188 507 218 148 30 198 32 215 12z"/>
<path d="M2018 2960 c-58 -10 -104 -37 -152 -90 -52 -58 -69 -103 -69 -190 -1
-62 4 -84 25 -125 53 -102 138 -154 249 -155 149 0 256 106 267 266 4 62 1 79
-23 133 -54 119 -170 182 -297 161z"/>
<path d="M3001 2959 c-179 -36 -274 -239 -190 -407 50 -101 132 -152 241 -152
157 0 274 123 272 285 -1 84 -20 130 -77 192 -65 71 -154 101 -246 82z"/>
</g>
</svg>
